<svg xmlns="http://www.w3.org/2000/svg" xml:space="preserve" width="52" height="52" overflow="visible">
  <path d="M46.294 29.972a20.5 20.5 0 0 1-.73 2.736l4.321 3.576a26 26 0 0 1-3.04 5.258l-5.26-1.955a21 21 0 0 1-2 1.999l1.956 5.26a26 26 0 0 1-5.257 3.04l-3.576-4.323a20.5 20.5 0 0 1-2.736.73l-.935 5.53A26 26 0 0 1 26 52q-1.541-.002-3.037-.177l-.935-5.53a20.5 20.5 0 0 1-2.736-.73l-3.576 4.322a26 26 0 0 1-5.258-3.04l1.956-5.26a21 21 0 0 1-2-1.998l-5.26 1.955a26 26 0 0 1-3.04-5.258l4.323-3.576a20.5 20.5 0 0 1-.73-2.735l-5.53-.936A26 26 0 0 1 0 26c0-1.028.062-2.04.178-3.037l5.528-.936a20.5 20.5 0 0 1 .73-2.735l-4.321-3.576a26 26 0 0 1 3.04-5.258l5.26 1.956a21 21 0 0 1 1.999-2l-1.956-5.26a26 26 0 0 1 5.258-3.04l3.576 4.323a20.5 20.5 0 0 1 2.736-.73l.935-5.53A26 26 0 0 1 26 0c1.028 0 2.04.062 3.037.178l.935 5.528a20.5 20.5 0 0 1 2.736.73l3.576-4.321a26 26 0 0 1 5.257 3.04l-1.955 5.259a21 21 0 0 1 2 2l5.26-1.956a26 26 0 0 1 3.039 5.258l-4.322 3.575a20.5 20.5 0 0 1 .73 2.736l5.53.936A26 26 0 0 1 52 26q-.002 1.541-.178 3.037zM15.66 31.027l25.388-8.785c-1.68-6.748-7.78-11.75-15.048-11.75-8.565 0-15.507 6.943-15.507 15.508S17.435 41.507 26 41.507c8.222 0 14.948-6.398 15.473-14.488l-4.249 1.47c-1.137 5.152-5.73 9.007-11.224 9.007-4.546 0-8.475-2.64-10.34-6.469m20.41-10.57-21.413 7.41A11.5 11.5 0 0 1 14.504 26c0-6.349 5.147-11.496 11.496-11.496a11.49 11.49 0 0 1 10.07 5.953" style="stroke-width:.116473"/>
</svg>
